<svg width="35" height="40" viewBox="0 0 35 40" fill="none" xmlns="http://www.w3.org/2000/svg">
<path fill-rule="evenodd" clip-rule="evenodd" d="M18.2172 1.3188L17.7391 1.05853C17.5901 0.977397 17.4101 0.977397 17.261 1.05853L16.7829 1.3188L0.827021 10.0046L0.305133 10.2887C0.144297 10.3762 0.0441895 10.5447 0.0441895 10.7278V11.322V28.6936V29.2878C0.0441895 29.4709 0.144297 29.6394 0.305133 29.7269L0.827021 30.011L16.7829 38.6968L17.261 38.9571C17.4101 39.0382 17.5901 39.0382 17.7391 38.957L18.2172 38.6968L34.1731 30.011L34.695 29.7269C34.8558 29.6394 34.956 29.4709 34.956 29.2878V28.6936V11.322V10.7278C34.956 10.5447 34.8558 10.3762 34.695 10.2887L34.1731 10.0046L18.2172 1.3188ZM6.46828 15.7104L3.78325 14.2487C3.45007 14.0674 3.04419 14.3085 3.04419 14.6879V25.021C3.04419 25.425 3.49864 25.6622 3.83011 25.4311L9.91386 21.1903C10.0511 21.0947 10.227 21.0739 10.3827 21.1351L11.5253 21.5842C11.7047 21.6547 11.8276 21.822 11.8412 22.0143L11.9227 23.1675C11.9351 23.3431 11.8543 23.5123 11.7099 23.6129L5.19907 28.1515C4.89417 28.364 4.9195 28.8231 5.24594 29.0008L15.9761 34.8419C15.9869 34.8478 16.0001 34.8399 16.0001 34.8276V34.8276V34.7921V34.7567V34.7213V34.686V34.6507V34.6154V34.5803V34.5451V34.51V34.475V34.44V34.4051V34.3702V34.3353V34.3005V34.2658V34.2311V34.1964V34.1618V34.1273V34.0928V34.0583V34.0239V33.9895V33.9552V33.9209V33.8867V33.8525V33.8183V33.7842V33.7502V33.7162V33.6822V33.6483V33.6144V33.5805V33.5467V33.513V33.4792V33.4456V33.4119V33.3783V33.3448V33.3113V33.2778V33.2443V33.2109V33.1776V33.1443V33.111V33.0777V33.0445V33.0114V32.9782V32.9451V32.9121V32.879V32.846V32.8131V32.7802V32.7473V32.7144V32.6816V32.6489V32.6161V32.5834V32.5507V32.5181V32.4855V32.4529V32.4203V32.3878V32.3553V32.3229V32.2905V32.2581V32.2257V32.1934V32.1611V32.1288V32.0966V32.0644V32.0322V32V31.9679V31.9358V31.9037V31.8717V31.8397V31.8077V31.7757V31.7438V31.7118V31.68V31.6481V31.6163V31.5844V31.5527V31.5209V31.4892V31.4574V31.4257V31.3941V31.3624V31.3308V31.2992V31.2676V31.2361V31.2045V31.173V31.1415V31.11V31.0786V31.0471V31.0157V30.9843V30.9529V30.9216V30.8902V30.8589V30.8276V30.7963V30.765V30.7338V30.7025V30.6713V30.6401V30.6089V30.5777V30.5466V30.5154V30.4843V30.4532V30.4221V30.391V30.3599V30.3289V30.2978V30.2668V30.2357V30.2047V30.1737V30.1427V30.1118V30.0808V30.0498V30.0189V29.9879V29.957V29.9261V29.8952V29.8643V29.8334V29.8025V29.7716V29.7408V29.7099V29.6791V29.6482V29.6174V29.5865V29.5557V29.5249V29.4941V29.4633V29.4324V29.4016V29.3708V29.34V29.3093V29.2785V29.2477V29.2169V29.1861V29.1553V29.1246V29.0938V29.063V29.0322V29.0015V28.9707V28.9399V28.9092V28.8784V28.8476V28.8168V28.7861V28.7553V28.7245V28.6937V28.663V28.6322V28.6014V28.5706V28.5398V28.509V28.4782V28.4474V28.4166V28.3857V28.3549V28.3241V28.2933V28.2624V28.2316V28.2007V28.1699V28.139V28.1081V28.0772V28.0463V28.0154V27.9845V27.9536V27.9227V27.8917V27.8608V27.8298V27.7989V27.7679V27.7369V27.7059V27.6749V27.6439V27.6128V27.5818V27.5507V27.5196V27.4885V27.4574V27.4263V27.3952V27.364V27.3329V27.3017V27.2705V27.2393V27.2081V27.1768V27.1456V27.1143V27.083V27.0517V27.0204V26.989V26.9577V26.9263V26.8949V26.8635V26.832V26.8006V26.7691V26.7376V26.7061V26.6745V26.643V26.6114V26.5798V26.5482V26.5165V26.4848V26.4531V26.4214V26.3897V26.3579V26.3261V26.2943V26.2625V26.2306V26.1987V26.1668V26.1349V26.1029V26.0709V26.0389V26.0068V25.9748V25.9427V25.9105V25.8784V25.8462V25.814V25.7817V25.7495V25.7172V25.6848V25.6525V25.6201V25.5877V25.5552V25.5227V25.4902V25.4576V25.4251V25.3925V25.3598V25.3271V25.2944V25.2617V25.2289V25.1961V25.1632V25.1303V25.0974V25.0645V25.0315V24.9984V24.9654V24.9323V24.8991V24.866V24.8328V24.7995V24.7662V24.7329V24.6995V24.6661V24.6327V24.5992V24.5657V24.5321V24.4985V24.4649V24.4312V24.3975V24.3637V24.3299V24.2961V24.2622V24.2283V24.1943V24.1603V24.1262V24.0921V24.0579V24.0238V23.9895V23.9552V23.9209V23.8865V23.8521V23.8176V23.7831V23.7486V23.714V23.6793V23.6446V23.6099V23.5751V23.5402V23.5053V23.4704V23.4354V23.4004V23.3653V23.3301V23.2949V23.2597V23.2244V23.1891V23.1537V23.1182V23.0827V23.0472V23.0116V22.9759V22.9402V22.9044V22.8686V22.8327V22.7968V22.7608V22.7248V22.6887V22.6526V22.6164V22.5801V22.5438V22.5074V22.471V22.4345V22.398V22.3614V22.3247V22.288V22.2512V22.2144V22.1775V22.1405V22.1035V22.0664V22.0293V21.9921V21.9548V21.9175V21.8801V21.8427V21.8052V21.7676V21.73V21.6923V21.6546V21.6167V21.5789V21.5409V21.5029V21.4648V21.4267V21.3885V21.3502V21.3119V21.2734V21.235V21.1964V21.1578V21.1192V21.0804V21.0416V21.0027V20.9638V20.9248V20.9248C16.0001 20.9089 15.9914 20.8944 15.9775 20.8868L6.46828 15.7104ZM29.7337 28.1776C30.0467 28.3863 30.0258 28.8529 29.6954 29.0328L19.0241 34.8419C19.0132 34.8478 19.0001 34.8399 19.0001 34.8276V34.8276V34.7921V34.7567V34.7213V34.686V34.6507V34.6154V34.5803V34.5451V34.51V34.475V34.44V34.4051V34.3702V34.3353V34.3005V34.2658V34.2311V34.1964V34.1618V34.1273V34.0928V34.0583V34.0239V33.9895V33.9552V33.9209V33.8867V33.8525V33.8183V33.7842V33.7502V33.7162V33.6822V33.6483V33.6144V33.5805V33.5467V33.513V33.4792V33.4456V33.4119V33.3783V33.3448V33.3113V33.2778V33.2443V33.2109V33.1776V33.1443V33.111V33.0777V33.0445V33.0114V32.9782V32.9451V32.9121V32.879V32.846V32.8131V32.7802V32.7473V32.7144V32.6816V32.6489V32.6161V32.5834V32.5507V32.5181V32.4855V32.4529V32.4203V32.3878V32.3553V32.3229V32.2905V32.2581V32.2257V32.1934V32.1611V32.1288V32.0966V32.0644V32.0322V32V31.9679V31.9358V31.9037V31.8717V31.8397V31.8077V31.7757V31.7438V31.7118V31.68V31.6481V31.6163V31.5844V31.5527V31.5209V31.4892V31.4574V31.4257V31.3941V31.3624V31.3308V31.2992V31.2676V31.2361V31.2045V31.173V31.1415V31.11V31.0786V31.0471V31.0157V30.9843V30.9529V30.9216V30.8902V30.8589V30.8276V30.7963V30.765V30.7338V30.7025V30.6713V30.6401V30.6089V30.5777V30.5466V30.5154V30.4843V30.4532V30.4221V30.391V30.3599V30.3289V30.2978V30.2668V30.2357V30.2047V30.1737V30.1427V30.1118V30.0808V30.0498V30.0189V29.9879V29.957V29.9261V29.8952V29.8643V29.8334V29.8025V29.7716V29.7408V29.7099V29.6791V29.6482V29.6174V29.5865V29.5557V29.5249V29.4941V29.4633V29.4324V29.4016V29.3708V29.34V29.3093V29.2785V29.2477V29.2169V29.1861V29.1553V29.1246V29.0938V29.063V29.0322V29.0015V28.9707V28.9399V28.9092V28.8784V28.8476V28.8168V28.7861V28.7553V28.7245V28.6937V28.663V28.6322V28.6014V28.5706V28.5398V28.509V28.4782V28.4474V28.4166V28.3857V28.3549V28.3241V28.2933V28.2624V28.2316V28.2007V28.1699V28.139V28.1081V28.0772V28.0463V28.0154V27.9845V27.9536V27.9227V27.8917V27.8608V27.8298V27.7989V27.7679V27.7369V27.7059V27.6749V27.6439V27.6128V27.5818V27.5507V27.5196V27.4885V27.4574V27.4263V27.3952V27.364V27.3329V27.3017V27.2705V27.2393V27.2081V27.1768V27.1456V27.1143V27.083V27.0517V27.0204V26.989V26.9577V26.9263V26.8949V26.8635V26.832V26.8006V26.7691V26.7376V26.7061V26.6745V26.643V26.6114V26.5798V26.5482V26.5165V26.4848V26.4531V26.4214V26.3897V26.3579V26.3261V26.2943V26.2625V26.2306V26.1987V26.1668V26.1349V26.1029V26.0709V26.0389V26.0068V25.9748V25.9427V25.9105V25.8784V25.8462V25.814V25.7817V25.7495V25.7172V25.6848V25.6525V25.6201V25.5877V25.5552V25.5227V25.4902V25.4576V25.4251V25.3925V25.3598V25.3271V25.2944V25.2617V25.2289V25.1961V25.1632V25.1303V25.0974V25.0645V25.0315V24.9984V24.9654V24.9323V24.8991V24.866V24.8328V24.7995V24.7662V24.7329V24.6995V24.6661V24.6327V24.5992V24.5657V24.5321V24.4985V24.4649V24.4312V24.3975V24.3637V24.3299V24.2961V24.2622V24.2283V24.1943V24.1603V24.1262V24.0921V24.0579V24.0238V23.9895V23.9552V23.9209V23.8865V23.8521V23.8176V23.7831V23.7486V23.714V23.6793V23.6446V23.6099V23.5751V23.5402V23.5053V23.4704V23.4354V23.4004V23.3653V23.3301V23.2949V23.2597V23.2244V23.1891V23.1537V23.1182V23.0827V23.0472V23.0116V22.9759V22.9402V22.9044V22.8686V22.8327V22.7968V22.7608V22.7248V22.6887V22.6526V22.6164V22.5801V22.5438V22.5074V22.471V22.4345V22.398V22.3614V22.3247V22.288V22.2512V22.2144V22.1775V22.1405V22.1035V22.0664V22.0293V21.9921V21.9548V21.9175V21.8801V21.8427V21.8052V21.7676V21.73V21.6923V21.6546V21.6167V21.5789V21.5409V21.5029V21.4648V21.4267V21.3885V21.3502V21.3119V21.2734V21.235V21.1964V21.1578V21.1192V21.0804V21.0416V21.0027V20.9638V20.9248V20.9248C19.0001 20.9089 19.0087 20.8944 19.0226 20.8868L28.5319 15.7104L31.2169 14.2487C31.5501 14.0674 31.956 14.3085 31.956 14.6879V25.1045C31.956 25.5038 31.5109 25.742 31.1786 25.5205L24.9523 21.3696C24.8177 21.2799 24.6479 21.2608 24.4967 21.3185L23.3268 21.7647C23.1358 21.8376 23.0084 22.0193 23.0051 22.2237L22.9859 23.4033C22.9832 23.5734 23.067 23.7331 23.2085 23.8275L29.7337 28.1776ZM27.0975 13.0755L17.7391 18.1698C17.5901 18.2509 17.4101 18.2509 17.261 18.1698L7.90261 13.0755L5.48825 11.7612C5.14033 11.5718 5.14033 11.0723 5.48825 10.8829L15.2169 5.58698C15.5501 5.40561 15.9559 5.64678 15.9559 6.02613V12.3599C15.9559 12.5369 16.0496 12.7007 16.2021 12.7906L17.2462 13.4059C17.4028 13.4982 17.5973 13.4982 17.7539 13.4059L18.798 12.7906C18.9505 12.7007 19.0442 12.5369 19.0442 12.3599V6.0261C19.0442 5.64676 19.45 5.40558 19.7832 5.58695L29.5119 10.8829C29.8598 11.0723 29.8598 11.5718 29.5119 11.7612L27.0975 13.0755Z" fill="#FBFBFB"/>
</svg>
