<svg width="197" height="16" viewBox="0 0 197 16" fill="none" xmlns="http://www.w3.org/2000/svg">
<path d="M2 14C18.9695 14 35.6279 13.3333 52.5556 13.3333C57.037 13.3333 61.5185 13.3333 66 13.3333C70.7407 13.3333 75.3036 12 80 12C83.8217 12 87.0709 10.0915 90.7778 10C94.9839 9.89614 98.8713 8.81154 103 8.66667C106.307 8.55061 109.47 7.80772 112.556 7.25926C115.678 6.70421 122.993 6.15239 125.444 4.66667C128.197 2.99859 136.328 3.33333 140 3.33333C144.617 3.33333 147.09 2 151.5 2C158.333 2 165.167 2 172 2C174.586 2 178.423 3.03978 181 3.48148C185.827 4.30903 190.268 5.61519 195 6.66667" stroke="#DC0606" stroke-width="3" stroke-linecap="round" stroke-linejoin="round"/>
</svg>
